HIERARCHY
ROOT joint_Root
{
	OFFSET 0.0 0.0 0.0
	CHANNELS 6 Xposition Yposition Zposition Zrotation Xrotation Yrotation 
	JOINT Hips
	{
		OFFSET 4.5925 91.4895 -427.239
		CHANNELS 6 Xposition Yposition Zposition Zrotation Xrotation Yrotation 
		JOINT Spine
		{
			OFFSET 15.7357 0.0 0.0
			CHANNELS 6 Xposition Yposition Zposition Zrotation Xrotation Yrotation 
			JOINT Chest
			{
				OFFSET 8.98455 -0.406207 0.0
				CHANNELS 6 Xposition Yposition Zposition Zrotation Xrotation Yrotation 
				JOINT Neck
				{
					OFFSET 16.3773 0.0 0.0
					CHANNELS 6 Xposition Yposition Zposition Zrotation Xrotation Yrotation 
					JOINT Head
					{
						OFFSET 6.45672 0.0 0.0
						CHANNELS 6 Xposition Yposition Zposition Zrotation Xrotation Yrotation 
						End Site
						{
							OFFSET 0.0 0.0 0.0
						}
					}
				}
				JOINT Shoulder_L
				{
					OFFSET 12.9942 -0.242716 4.98039
					CHANNELS 6 Xposition Yposition Zposition Zrotation Xrotation Yrotation 
					JOINT UpperArm_L
					{
						OFFSET 5.34809 0.0 0.0
						CHANNELS 6 Xposition Yposition Zposition Zrotation Xrotation Yrotation 
						JOINT LowerArm_L
						{
							OFFSET 24.3286 1.87007e-05 0.0
							CHANNELS 6 Xposition Yposition Zposition Zrotation Xrotation Yrotation 
							JOINT Hand_L
							{
								OFFSET 22.2916 0.0 0.0
								CHANNELS 6 Xposition Yposition Zposition Zrotation Xrotation Yrotation 
								End Site
								{
									OFFSET 0.0 0.0 0.0
								}
							}
						}
					}
				}
				JOINT Shoulder_R
				{
					OFFSET 12.9945 -0.242716 -4.98039
					CHANNELS 6 Xposition Yposition Zposition Zrotation Xrotation Yrotation 
					JOINT UpperArm_R
					{
						OFFSET -5.34813 0.0 0.0
						CHANNELS 6 Xposition Yposition Zposition Zrotation Xrotation Yrotation 
						JOINT LowerArm_R
						{
							OFFSET -24.3289 0.000322201 0.0
							CHANNELS 6 Xposition Yposition Zposition Zrotation Xrotation Yrotation 
							JOINT Hand_R
							{
								OFFSET -22.2915 -0.000108084 0.0
								CHANNELS 6 Xposition Yposition Zposition Zrotation Xrotation Yrotation 
								End Site
								{
									OFFSET 0.0 0.0 0.0
								}
							}
						}
					}
				}
			}
		}
		JOINT UpperLeg_L
		{
			OFFSET -2.19248 -6.46944 0.0
			CHANNELS 6 Xposition Yposition Zposition Zrotation Xrotation Yrotation 
			JOINT LowerLeg_L
			{
				OFFSET 39.0811 0.0 -1.23785e-05
				CHANNELS 6 Xposition Yposition Zposition Zrotation Xrotation Yrotation 
				JOINT Foot_L
				{
					OFFSET 40.9854 0.0 -1.26872e-05
					CHANNELS 6 Xposition Yposition Zposition Zrotation Xrotation Yrotation 
					JOINT Toes_L
					{
						OFFSET 11.7543 0.0 0.0
						CHANNELS 6 Xposition Yposition Zposition Zrotation Xrotation Yrotation 
						End Site
						{
							OFFSET 0.0 0.0 0.0
						}
					}
				}
			}
		}
		JOINT UpperLeg_R
		{
			OFFSET -2.19251 6.46944 0.0
			CHANNELS 6 Xposition Yposition Zposition Zrotation Xrotation Yrotation 
			JOINT LowerLeg_R
			{
				OFFSET -39.0811 -0.00228153 -0.0401928
				CHANNELS 6 Xposition Yposition Zposition Zrotation Xrotation Yrotation 
				JOINT Foot_R
				{
					OFFSET -40.9854 0.0 0.0
					CHANNELS 6 Xposition Yposition Zposition Zrotation Xrotation Yrotation 
					JOINT Toes_R
					{
						OFFSET -11.7543 0.0 0.0
						CHANNELS 6 Xposition Yposition Zposition Zrotation Xrotation Yrotation 
						End Site
						{
							OFFSET 0.0 0.0 0.0
						}
					}
				}
			}
		}
	}
}
MOTION
Frames:	6
Frame Time:	0.0333333
0.000000 0.000000 0.000000 0.000000 0.000000 -0.000000 4.505070 90.678100 -1.291360 90.398900 -7.651560 16.433100 15.735700 0.000005 -0.000001 95.902800 80.345300 -100.363000 8.984550 -0.406207 -0.000000 11.532500 1.822770 -9.102790 16.377300 -0.000001 -0.000001 30.756200 0.942085 -4.711800 6.456720 -0.000001 -0.000000 11.451800 2.992560 -8.734240 12.994200 -0.242716 4.980390 -91.652500 4.975550 -71.601300 5.348090 -0.000007 -0.000001 -61.139200 27.912600 -11.371200 24.328600 0.000019 0.000005 11.410200 27.678800 -23.483700 22.291600 -0.000001 0.000005 11.319500 5.263410 1.075740 12.994500 -0.242716 -4.980390 90.735100 -2.725740 -74.899800 -5.348130 -0.000001 -0.000004 -70.367200 -45.962500 -80.674300 -24.328900 0.000322 -0.000009 8.313390 2.052080 -76.234100 -22.291500 -0.000108 -0.000004 35.076600 5.518110 -7.281710 -2.192480 -6.469440 -0.000000 -176.975000 -17.027200 6.957350 39.081100 -0.000007 -0.000012 -0.044614 0.076624 30.210100 40.985400 -0.000006 -0.000013 4.579130 5.234290 -71.081600 11.754300 -0.000000 0.000003 -0.000233 -0.002105 -16.656600 -2.192510 6.469440 -0.000001 166.875000 18.662100 -173.143000 -39.081100 -0.002282 -0.040193 -0.200352 0.352967 29.984200 -40.985400 0.000008 0.000006 0.386195 18.573200 -68.773200 -11.754300 -0.000006 -0.000006 -0.003188 -0.042716 -18.310400
0.000000 0.000000 0.000000 0.000000 0.000000 -0.000000 4.525290 90.675600 -1.290730 90.417500 -7.643030 16.477500 15.735700 0.000005 -0.000001 95.921400 80.330100 -100.379000 8.984550 -0.406207 -0.000000 11.562400 1.830920 -9.098240 16.377300 -0.000001 -0.000001 30.753100 0.940975 -4.769340 6.456720 -0.000001 -0.000000 11.459200 3.008030 -8.710490 12.994200 -0.242716 4.980390 -91.652500 4.970240 -71.582800 5.348090 -0.000007 -0.000001 -61.156000 27.952100 -11.392700 24.328600 0.000019 0.000005 11.375600 27.559400 -23.501700 22.291600 -0.000001 0.000005 11.340000 5.265430 1.021520 12.994500 -0.242716 -4.980390 90.737800 -2.736590 -74.905900 -5.348130 -0.000001 -0.000004 -70.280400 -45.822400 -80.629900 -24.328900 0.000322 -0.000009 8.352260 2.110860 -75.919600 -22.291500 -0.000108 -0.000004 34.910400 5.518400 -7.294070 -2.192480 -6.469440 -0.000000 -177.003000 -17.012700 7.000350 39.081100 -0.000007 -0.000012 -0.041265 0.070887 30.205200 40.985400 -0.000006 -0.000013 4.598260 5.246510 -71.082200 11.754300 -0.000000 0.000003 -0.000246 -0.002203 -16.660100 -2.192510 6.469440 -0.000001 166.824000 18.646500 -173.103000 -39.081100 -0.002282 -0.040193 -0.199690 0.351683 29.993900 -40.985400 0.000008 0.000006 0.374007 18.593400 -68.775600 -11.754300 -0.000006 -0.000006 -0.003139 -0.042160 -18.287700
0.000000 0.000000 0.000000 0.000000 0.000000 -0.000000 4.537080 90.669700 -1.295530 90.419000 -7.640610 16.475500 15.735700 0.000005 -0.000001 95.883300 80.333400 -100.340000 8.984550 -0.406207 -0.000000 11.556600 1.817830 -9.095470 16.377300 -0.000001 -0.000001 30.737600 0.952289 -4.758910 6.456720 -0.000001 -0.000000 11.539100 3.031340 -8.631520 12.994200 -0.242716 4.980390 -91.639700 4.939740 -71.610900 5.348090 -0.000007 -0.000001 -61.222300 27.944100 -11.398800 24.328600 0.000019 0.000005 11.404400 27.590200 -23.534700 22.291600 -0.000001 0.000005 11.331400 5.265280 1.025480 12.994500 -0.242716 -4.980390 90.734600 -2.727680 -74.920300 -5.348130 -0.000001 -0.000004 -70.212700 -45.640700 -80.695500 -24.328900 0.000322 -0.000009 8.384290 2.192130 -75.454500 -22.291500 -0.000108 -0.000004 34.798800 5.516960 -7.232800 -2.192480 -6.469440 -0.000000 -177.003000 -17.020200 6.983460 39.081100 -0.000007 -0.000012 -0.045897 0.078747 30.235900 40.985400 -0.000006 -0.000013 4.600110 5.236340 -71.097300 11.754300 -0.000000 0.000003 -0.000246 -0.002201 -16.660100 -2.192510 6.469440 -0.000001 166.820000 18.666800 -173.134000 -39.081100 -0.002282 -0.040193 -0.199526 0.350826 30.034300 -40.985400 0.000008 0.000006 0.378634 18.588300 -68.783700 -11.754300 -0.000006 -0.000006 -0.003155 -0.042344 -18.295200
0.000000 0.000000 0.000000 0.000000 0.000000 -0.000000 4.545720 90.680000 -1.303350 90.404200 -7.667990 16.477800 15.735700 0.000005 -0.000001 95.845700 80.328200 -100.296000 8.984550 -0.406207 -0.000000 11.567500 1.806120 -9.080330 16.377300 -0.000001 -0.000001 30.734400 0.954796 -4.675370 6.456720 -0.000001 -0.000000 11.512300 2.999690 -8.569140 12.994200 -0.242716 4.980390 -91.644500 4.943100 -71.572400 5.348090 -0.000007 -0.000001 -61.228700 28.015700 -11.492900 24.328600 0.000019 0.000005 11.358300 27.450900 -23.545400 22.291600 -0.000001 0.000005 11.288700 5.266130 1.002420 12.994500 -0.242716 -4.980390 90.733900 -2.712320 -74.853400 -5.348130 -0.000001 -0.000004 -70.214100 -45.387700 -80.906800 -24.328900 0.000322 -0.000009 8.200660 2.227710 -74.908400 -22.291500 -0.000108 -0.000004 34.700000 5.519120 -7.324910 -2.192480 -6.469440 -0.000000 -176.987000 -17.054400 7.013710 39.081100 -0.000007 -0.000012 -0.044115 0.075845 30.184900 40.985400 -0.000006 -0.000013 4.608230 5.238810 -71.073400 11.754300 -0.000000 0.000003 -0.000242 -0.002177 -16.659200 -2.192510 6.469440 -0.000001 166.828000 18.643500 -173.105000 -39.081100 -0.002282 -0.040193 -0.201897 0.355978 29.961000 -40.985400 0.000008 0.000006 0.362259 18.621100 -68.737600 -11.754300 -0.000006 -0.000006 -0.003199 -0.042835 -18.315200
0.000000 0.000000 0.000000 0.000000 0.000000 -0.000000 4.554860 90.670200 -1.303570 90.405800 -7.720840 16.471600 15.735700 0.000005 -0.000001 95.631700 80.318900 -100.093000 8.984550 -0.406207 -0.000000 11.590500 1.735320 -9.095890 16.377300 -0.000001 -0.000001 30.717700 0.940761 -4.589390 6.456720 -0.000001 -0.000000 11.479800 2.951540 -8.490040 12.994200 -0.242716 4.980390 -91.641300 4.920000 -71.526100 5.348090 -0.000007 -0.000001 -61.243900 28.051800 -11.612000 24.328600 0.000019 0.000005 11.346400 27.385900 -23.568600 22.291600 -0.000001 0.000005 11.311200 5.266210 1.000410 12.994500 -0.242716 -4.980390 90.731700 -2.698250 -74.821500 -5.348130 -0.000001 -0.000004 -70.126900 -45.056500 -81.011600 -24.328900 0.000322 -0.000009 8.172230 2.295200 -74.421000 -22.291500 -0.000108 -0.000004 34.716000 5.517440 -7.253030 -2.192480 -6.469440 -0.000000 -176.990000 -17.083500 6.976170 39.081100 -0.000007 -0.000012 -0.042502 0.072914 30.238900 40.985400 -0.000006 -0.000013 4.613410 5.227160 -71.097000 11.754300 -0.000000 0.000003 -0.000227 -0.002062 -16.655100 -2.192510 6.469440 -0.000001 166.840000 18.631800 -173.160000 -39.081100 -0.002282 -0.040193 -0.198606 0.349370 30.024800 -40.985400 0.000008 0.000006 0.376139 18.630600 -68.760500 -11.754300 -0.000006 -0.000006 -0.003137 -0.042147 -18.287200
0.000000 0.000000 0.000000 0.000000 0.000000 -0.000000 4.554660 90.679400 -1.308080 90.405600 -7.806290 16.507200 15.735700 0.000005 -0.000001 95.545300 80.291200 -100.020000 8.984550 -0.406207 -0.000000 11.647600 1.709010 -9.121510 16.377300 -0.000001 -0.000001 30.694200 0.911815 -4.465220 6.456720 -0.000001 -0.000000 11.544300 2.874630 -8.416750 12.994200 -0.242716 4.980390 -91.645900 4.930520 -71.514100 5.348090 -0.000007 -0.000001 -61.215400 28.072200 -11.738000 24.328600 0.000019 0.000005 11.388600 27.318900 -23.696400 22.291600 -0.000001 0.000005 11.369500 5.265680 1.014530 12.994500 -0.242716 -4.980390 90.718600 -2.640100 -74.766500 -5.348130 -0.000001 -0.000004 -69.879900 -44.739400 -80.896800 -24.328900 0.000322 -0.000009 8.163400 2.334410 -74.151900 -22.291500 -0.000108 -0.000004 34.462200 5.516150 -7.198420 -2.192480 -6.469440 -0.000000 -176.967000 -17.122600 7.049220 39.081100 -0.000007 -0.000012 -0.042623 0.073287 30.182200 40.985400 -0.000006 -0.000013 4.594820 5.182280 -71.072100 11.754300 -0.000000 0.000003 -0.000235 -0.002124 -16.657300 -2.192510 6.469440 -0.000001 166.866000 18.530500 -173.124000 -39.081100 -0.002282 -0.040193 -0.199221 0.351151 29.973900 -40.985400 0.000008 0.000006 0.365052 18.618300 -68.730100 -11.754300 -0.000006 -0.000006 -0.003134 -0.042110 -18.285700
